# xmcd
#
# Track frame offsets:
#	150
#	13391
#	25630
#	36244
#	48191
#	62714
#	74662
#	89369
#	108555
#	121669
#
# Disc length: 1779 seconds
#
# Revision: 0
# Processed by: cddbd v1.5.2PL0 Copyright (c) Steve Scherf et al.
# Submitted via: audiograbber 1.83.01
#
DISCID=8406f10a
DTITLE=Dolly Parton - The Box Set Series [Disk 3]
DYEAR=2014
DGENRE=Country
TTITLE0=I will allways love you
TTITLE1=The bargain star
TTITLE2=Love is like a butterfly
TTITLE3=Kentucky gambler
TTITLE4=Lonely comin' down
TTITLE5=To Daddy
TTITLE6=The seeker
TTITLE7=Boulder to Birmingham
TTITLE8=Here you come again
TTITLE9=Me an little Andy
EXTD=
EXTT0=
EXTT1=
EXTT2=
EXTT3=
EXTT4=
EXTT5=
EXTT6=
EXTT7=
EXTT8=
EXTT9=
PLAYORDER=
